<svg  xmlns="http://www.w3.org/2000/svg" xmlns:xlink="http://www.w3.org/1999/xlink">
<path d="m 100.000000,5.731169 -21.863964,-105.731169 " style="stroke: #000000; fill:none;"/>
<path d="m 100.000000,13.485250 -17.850107,-113.485250 " style="stroke: #000000; fill:none;"/>
<path d="m 100.000000,26.129243 -13.465352,-126.129243 " style="stroke: #000000; fill:none;"/>
<path d="m 100.000000,57.591712 -8.679563,-157.591712 " style="stroke: #000000; fill:none;"/>
<path d="m 96.960338,100.000000 -0.419210,-200.000000 " style="stroke: #000000; fill:none;"/>
<path d="m 91.762356,100.000000 8.237644,-157.312562 " style="stroke: #000000; fill:none;"/>
<path d="m 86.741864,100.000000 13.258136,-122.162870 " style="stroke: #000000; fill:none;"/>
<path d="m 81.897263,100.000000 18.102737,-108.619603 " style="stroke: #000000; fill:none;"/>
<path d="m 77.225483,100.000000 22.774517,-100.290847 " style="stroke: #000000; fill:none;"/>
<path d="m 72.722197,100.000000 27.277803,-94.003588 " style="stroke: #000000; fill:none;"/>
<path d="m 68.382021,100.000000 31.617979,-88.715598 " style="stroke: #000000; fill:none;"/>
<path d="m 64.198658,100.000000 35.801342,-83.984760 " style="stroke: #000000; fill:none;"/>
<path d="m 60.165009,100.000000 39.834991,-79.592099 " style="stroke: #000000; fill:none;"/>
<path d="m 56.273234,100.000000 43.726766,-75.417271 " style="stroke: #000000; fill:none;"/>
<path d="m 52.514747,100.000000 47.485253,-71.389125 " style="stroke: #000000; fill:none;"/>
<path d="m 48.880151,100.000000 51.119849,-67.463369 " style="stroke: #000000; fill:none;"/>
<path d="m 45.359083,100.000000 54.640917,-63.611502 " style="stroke: #000000; fill:none;"/>
<path d="m 41.939953,100.000000 58.060047,-59.814919 " style="stroke: #000000; fill:none;"/>
<path d="m 38.609539,100.000000 61.390461,-56.061586 " style="stroke: #000000; fill:none;"/>
<path d="m 35.352370,100.000000 64.647630,-52.344104 " style="stroke: #000000; fill:none;"/>
<path d="m 32.149822,100.000000 67.850178,-48.658527 " style="stroke: #000000; fill:none;"/>
<path d="m 100.000000,54.996366 -71.021254,45.003634 " style="stroke: #000000; fill:none;"/>
<path d="m 100.000000,58.619529 -74.190615,41.380471 " style="stroke: #000000; fill:none;"/>
<path d="m 100.000000,62.207943 -77.397907,37.792057 " style="stroke: #000000; fill:none;"/>
<path d="m 100.000000,65.756825 -80.697990,34.243175 " style="stroke: #000000; fill:none;"/>
<path d="m 100.000000,69.259761 -84.169969,30.740239 " style="stroke: #000000; fill:none;"/>
<path d="m 100.000000,72.708833 -87.933338,27.291167 " style="stroke: #000000; fill:none;"/>
<path d="m 100.000000,76.094734 -92.178752,23.905266 " style="stroke: #000000; fill:none;"/>
<path d="m 100.000000,79.406897 -97.231690,20.593103 " style="stroke: #000000; fill:none;"/>
<path d="m 100.000000,82.633653 -103.698922,17.366347 " style="stroke: #000000; fill:none;"/>
<path d="m 100.000000,85.762417 -112.858365,14.237583 " style="stroke: #000000; fill:none;"/>
<path d="m 100.000000,88.779926 -127.945001,11.220074 " style="stroke: #000000; fill:none;"/>
<path d="m 100.000000,91.672511 -160.228366,8.327489 " style="stroke: #000000; fill:none;"/>
<path d="m 100.000000,94.426418 -200.000000,3.780624 " style="stroke: #000000; fill:none;"/>
<path d="m 100.000000,97.028161 -200.000000,-2.315313 " style="stroke: #000000; fill:none;"/>
<path d="m 100.000000,99.464912 -200.000000,-7.902574 " style="stroke: #000000; fill:none;"/>
<path d="m 73.439675,100.000000 -173.439675,-11.263599 " style="stroke: #000000; fill:none;"/>
<path d="m 56.793349,100.000000 -156.793349,-13.781822 " style="stroke: #000000; fill:none;"/>
<path d="m 47.653375,100.000000 -147.653375,-16.007592 " style="stroke: #000000; fill:none;"/>
<path d="m 41.906554,100.000000 -141.906554,-17.955139 " style="stroke: #000000; fill:none;"/>
<path d="m 38.014187,100.000000 -138.014187,-19.638145 " style="stroke: #000000; fill:none;"/>
<path d="m 35.270144,100.000000 -135.270144,-21.070147 " style="stroke: #000000; fill:none;"/>
<path d="m 33.304692,100.000000 -133.304692,-22.264867 " style="stroke: #000000; fill:none;"/>
<path d="m 31.905359,100.000000 -131.905359,-23.236473 " style="stroke: #000000; fill:none;"/>
<path d="m 30.941245,100.000000 -130.941245,-23.999765 " style="stroke: #000000; fill:none;"/>
<path d="m 30.327172,100.000000 -130.327172,-24.570305 " style="stroke: #000000; fill:none;"/>
<path d="m 30.005139,100.000000 -130.005139,-24.964492 " style="stroke: #000000; fill:none;"/>
<path d="m 29.934025,100.000000 -129.934025,-25.199588 " style="stroke: #000000; fill:none;"/>
<path d="m 30.083451,100.000000 -130.083451,-25.293707 " style="stroke: #000000; fill:none;"/>
<path d="m 30.429883,100.000000 -130.429883,-25.265773 " style="stroke: #000000; fill:none;"/>
<path d="m 30.953934,100.000000 -130.953934,-25.135462 " style="stroke: #000000; fill:none;"/>
<path d="m 31.638311,100.000000 -131.638311,-24.923113 " style="stroke: #000000; fill:none;"/>
<path d="m 32.466077,100.000000 -132.466077,-24.649645 " style="stroke: #000000; fill:none;"/>
<path d="m 33.419038,100.000000 -133.419038,-24.336453 " style="stroke: #000000; fill:none;"/>
<path d="m 34.476173,100.000000 -134.476173,-24.005300 " style="stroke: #000000; fill:none;"/>
<path d="m 35.612110,100.000000 -135.612110,-23.678203 " style="stroke: #000000; fill:none;"/>
<path d="m 36.795749,100.000000 -136.795749,-23.377306 " style="stroke: #000000; fill:none;"/>
<path d="m 37.989282,100.000000 -137.989282,-23.124744 " style="stroke: #000000; fill:none;"/>
<path d="m 39.147920,100.000000 -139.147920,-22.942500 " style="stroke: #000000; fill:none;"/>
<path d="m 40.220735,100.000000 -140.220735,-22.852240 " style="stroke: #000000; fill:none;"/>
<path d="m 41.152952,100.000000 -141.152952,-22.875147 " style="stroke: #000000; fill:none;"/>
<path d="m 41.889784,100.000000 -141.889784,-23.031735 " style="stroke: #000000; fill:none;"/>
<path d="m 42.381480,100.000000 -142.381480,-23.341665 " style="stroke: #000000; fill:none;"/>
<path d="m 42.588771,100.000000 -142.588771,-23.823565 " style="stroke: #000000; fill:none;"/>
<path d="m 42.487505,100.000000 -142.487505,-24.494852 " style="stroke: #000000; fill:none;"/>
<path d="m 42.071278,100.000000 -142.071278,-25.371583 " style="stroke: #000000; fill:none;"/>
<path d="m 41.351313,100.000000 -141.351313,-26.468329 " style="stroke: #000000; fill:none;"/>
<path d="m 40.353651,100.000000 -140.353651,-27.798108 " style="stroke: #000000; fill:none;"/>
<path d="m 39.114427,100.000000 -139.114427,-29.372355 " style="stroke: #000000; fill:none;"/>
<path d="m 37.674465,100.000000 -137.674465,-31.200973 " style="stroke: #000000; fill:none;"/>
<path d="m 36.074334,100.000000 -136.074334,-33.292455 " style="stroke: #000000; fill:none;"/>
<path d="m 34.350640,100.000000 -134.350640,-35.654085 " style="stroke: #000000; fill:none;"/>
<path d="m 32.533820,100.000000 -132.533820,-38.292243 " style="stroke: #000000; fill:none;"/>
<path d="m 30.647296,100.000000 -130.647296,-41.212787 " style="stroke: #000000; fill:none;"/>
<path d="m 28.707658,100.000000 -128.707658,-44.421554 " style="stroke: #000000; fill:none;"/>
<path d="m 26.725459,100.000000 -126.725459,-47.924957 " style="stroke: #000000; fill:none;"/>
<path d="m 24.706291,100.000000 -124.706291,-51.730708 " style="stroke: #000000; fill:none;"/>
<path d="m 22.651907,100.000000 -122.651907,-55.848681 " style="stroke: #000000; fill:none;"/>
<path d="m 20.561238,100.000000 -120.561238,-60.291941 " style="stroke: #000000; fill:none;"/>
<path d="m 18.431241,100.000000 -118.431241,-65.077992 " style="stroke: #000000; fill:none;"/>
<path d="m 16.257557,100.000000 -116.257557,-70.230316 " style="stroke: #000000; fill:none;"/>
<path d="m 14.035004,100.000000 -114.035004,-75.780311 " style="stroke: #000000; fill:none;"/>
<path d="m 11.757912,100.000000 -111.757912,-81.769812 " style="stroke: #000000; fill:none;"/>
<path d="m 9.420340,100.000000 -109.420340,-88.254431 " style="stroke: #000000; fill:none;"/>
<path d="m 7.016199,100.000000 -107.016199,-95.308141 " style="stroke: #000000; fill:none;"/>
<path d="m 4.539308,100.000000 -104.539308,-103.029724 " style="stroke: #000000; fill:none;"/>
<path d="m 1.983390,100.000000 -101.983390,-111.552109 " style="stroke: #000000; fill:none;"/>
<path d="m -0.657957,100.000000 -99.342043,-121.056314 " style="stroke: #000000; fill:none;"/>
<path d="m -3.391322,100.000000 -96.608678,-131.792928 " style="stroke: #000000; fill:none;"/>
<path d="m -6.223557,100.000000 -93.776443,-144.116448 " style="stroke: #000000; fill:none;"/>
<path d="m -9.161864,100.000000 -90.838136,-158.542480 " style="stroke: #000000; fill:none;"/>
<path d="m -12.213882,100.000000 -87.786118,-175.847827 " style="stroke: #000000; fill:none;"/>
<path d="m -15.387783,100.000000 -84.612217,-197.256390 " style="stroke: #000000; fill:none;"/>
<path d="m -18.692360,100.000000 -72.334226,-200.000000 " style="stroke: #000000; fill:none;"/>
<path d="m -22.137116,100.000000 -59.393936,-200.000000 " style="stroke: #000000; fill:none;"/>
<path d="m -25.732341,100.000000 -46.892149,-200.000000 " style="stroke: #000000; fill:none;"/>
<path d="m -29.489179,100.000000 -34.760499,-200.000000 " style="stroke: #000000; fill:none;"/>
<path d="m -33.419687,100.000000 -22.937408,-200.000000 " style="stroke: #000000; fill:none;"/>
<path d="m -37.536868,100.000000 -11.367312,-200.000000 " style="stroke: #000000; fill:none;"/>
<path d="m -41.854693,100.000000 -0.000000,-200.000000 " style="stroke: #000000; fill:none;"/>
<path d="m -46.388088,100.000000 11.209924,-200.000000 " style="stroke: #000000; fill:none;"/>
<path d="m -51.152895,100.000000 22.303496,-200.000000 " style="stroke: #000000; fill:none;"/>
<path d="m -56.165799,100.000000 33.317745,-200.000000 " style="stroke: #000000; fill:none;"/>
<path d="m -61.444204,100.000000 44.285977,-200.000000 " style="stroke: #000000; fill:none;"/>
<path d="m -67.006076,100.000000 55.237989,-200.000000 " style="stroke: #000000; fill:none;"/>
<path d="m -72.869728,100.000000 66.200230,-200.000000 " style="stroke: #000000; fill:none;"/>
<path d="m -79.053556,100.000000 77.195924,-200.000000 " style="stroke: #000000; fill:none;"/>
<path d="m -85.575731,100.000000 88.245169,-200.000000 " style="stroke: #000000; fill:none;"/>
<path d="m -92.453836,100.000000 99.365026,-200.000000 " style="stroke: #000000; fill:none;"/>
<path d="m -99.704481,100.000000 110.569629,-200.000000 " style="stroke: #000000; fill:none;"/>
<path d="m -100.000000,87.949671 114.527433,-187.949671 " style="stroke: #000000; fill:none;"/>
<path d="m -100.000000,76.916325 117.893369,-176.916325 " style="stroke: #000000; fill:none;"/>
<path d="m -100.000000,67.077726 120.958144,-167.077726 " style="stroke: #000000; fill:none;"/>
<path d="m -100.000000,58.180976 123.717510,-158.180976 " style="stroke: #000000; fill:none;"/>
<path d="m -100.000000,50.042722 126.168514,-150.042722 " style="stroke: #000000; fill:none;"/>
<path d="m -100.000000,42.527656 128.310223,-142.527656 " style="stroke: #000000; fill:none;"/>
<path d="m -100.000000,35.534563 130.144428,-135.534563 " style="stroke: #000000; fill:none;"/>
<path d="m -100.000000,28.986953 131.676288,-128.986953 " style="stroke: #000000; fill:none;"/>
<path d="m -100.000000,22.826583 132.914886,-122.826583 " style="stroke: #000000; fill:none;"/>
<path d="m -100.000000,17.008852 133.873652,-117.008852 " style="stroke: #000000; fill:none;"/>
<path d="m -100.000000,11.499423 134.570651,-111.499423 " style="stroke: #000000; fill:none;"/>
<path d="m -100.000000,6.271705 135.028690,-106.271705 " style="stroke: #000000; fill:none;"/>
<path d="m -100.000000,1.304902 135.275273,-101.304902 " style="stroke: #000000; fill:none;"/>
<path d="m -100.000000,-3.417497 135.342380,-96.582503 " style="stroke: #000000; fill:none;"/>
<path d="m -100.000000,-7.908935 135.266128,-92.091065 " style="stroke: #000000; fill:none;"/>
<path d="m -100.000000,-12.180747 135.086327,-87.819253 " style="stroke: #000000; fill:none;"/>
<path d="m -100.000000,-16.242941 134.846007,-83.757059 " style="stroke: #000000; fill:none;"/>
<path d="m -100.000000,-20.104815 134.590969,-79.895185 " style="stroke: #000000; fill:none;"/>
<path d="m -100.000000,-23.775434 134.369451,-76.224566 " style="stroke: #000000; fill:none;"/>
<path d="m -100.000000,-27.263991 134.231977,-72.736009 " style="stroke: #000000; fill:none;"/>
<path d="m -100.000000,-30.580054 134.231509,-69.419946 " style="stroke: #000000; fill:none;"/>
<path d="m -100.000000,-33.733716 134.424007,-66.266284 " style="stroke: #000000; fill:none;"/>
<path d="m -100.000000,-36.735663 134.869535,-63.264337 " style="stroke: #000000; fill:none;"/>
<path d="m -100.000000,-39.597156 135.634118,-60.402844 " style="stroke: #000000; fill:none;"/>
<path d="m -100.000000,-42.329952 136.792629,-57.670048 " style="stroke: #000000; fill:none;"/>
<path d="m -100.000000,-44.946178 138.433119,-55.053822 " style="stroke: #000000; fill:none;"/>
<path d="m -100.000000,-47.458156 140.663314,-52.541844 " style="stroke: #000000; fill:none;"/>
<path d="m -100.000000,-49.878209 143.620407,-50.121791 " style="stroke: #000000; fill:none;"/>
<path d="m -100.000000,-52.218455 147.486182,-47.781545 " style="stroke: #000000; fill:none;"/>
<path d="m -100.000000,-54.490593 152.511112,-45.509407 " style="stroke: #000000; fill:none;"/>
<path d="m -100.000000,-56.705712 159.054332,-43.294288 " style="stroke: #000000; fill:none;"/>
<path d="m -100.000000,-58.874114 167.653343,-41.125886 " style="stroke: #000000; fill:none;"/>
<path d="m -100.000000,-61.005166 179.153129,-38.994834 " style="stroke: #000000; fill:none;"/>
<path d="m -100.000000,-63.107189 194.963992,-36.892811 " style="stroke: #000000; fill:none;"/>
<path d="m -100.000000,-65.187387 200.000000,-31.992721 " style="stroke: #000000; fill:none;"/>
<path d="m -100.000000,-67.251807 200.000000,-25.966207 " style="stroke: #000000; fill:none;"/>
<path d="m -100.000000,-69.305344 200.000000,-19.759793 " style="stroke: #000000; fill:none;"/>
<path d="m -100.000000,-71.351782 200.000000,-13.367376 " style="stroke: #000000; fill:none;"/>
<path d="m -100.000000,-73.393864 200.000000,-6.782884 " style="stroke: #000000; fill:none;"/>
<path d="m -100.000000,-75.433387 200.000000,-0.000000 " style="stroke: #000000; fill:none;"/>
<path d="m -100.000000,-77.471327 200.000000,6.988111 " style="stroke: #000000; fill:none;"/>
<path d="m -100.000000,-79.507973 200.000000,14.189042 " style="stroke: #000000; fill:none;"/>
<path d="m -100.000000,-81.543080 200.000000,21.611378 " style="stroke: #000000; fill:none;"/>
<path d="m -100.000000,-83.576023 200.000000,29.264892 " style="stroke: #000000; fill:none;"/>
<path d="m -100.000000,-85.605958 200.000000,37.160724 " style="stroke: #000000; fill:none;"/>
<path d="m -100.000000,-87.631984 200.000000,45.311535 " style="stroke: #000000; fill:none;"/>
<path d="m -100.000000,-89.653294 200.000000,53.731629 " style="stroke: #000000; fill:none;"/>
<path d="m -100.000000,-91.669327 200.000000,62.437048 " style="stroke: #000000; fill:none;"/>
<path d="m -100.000000,-93.679909 200.000000,71.445637 " style="stroke: #000000; fill:none;"/>
<path d="m -100.000000,-95.685382 200.000000,80.777072 " style="stroke: #000000; fill:none;"/>
<path d="m -100.000000,-97.686724 200.000000,90.452845 " style="stroke: #000000; fill:none;"/>
<path d="m -100.000000,-99.685655 200.000000,100.496210 " style="stroke: #000000; fill:none;"/>
<path d="m -96.962599,-100.000000 196.962599,109.247340 " style="stroke: #000000; fill:none;"/>
<path d="m -93.944498,-100.000000 193.944498,118.099372 " style="stroke: #000000; fill:none;"/>
<path d="m -91.437071,-100.000000 191.437071,127.389779 " style="stroke: #000000; fill:none;"/>
<path d="m -89.338534,-100.000000 189.338534,137.141514 " style="stroke: #000000; fill:none;"/>
<path d="m -87.569993,-100.000000 187.569993,147.376853 " style="stroke: #000000; fill:none;"/>
<path d="m -86.069111,-100.000000 186.069111,158.116789 " style="stroke: #000000; fill:none;"/>
<path d="m -84.785782,-100.000000 184.785782,169.380277 " style="stroke: #000000; fill:none;"/>
<path d="m -83.679128,-100.000000 183.679128,181.183350 " style="stroke: #000000; fill:none;"/>
<path d="m -82.715345,-100.000000 182.715345,193.538059 " style="stroke: #000000; fill:none;"/>
<path d="m -81.866151,-100.000000 176.183136,200.000000 " style="stroke: #000000; fill:none;"/>
<path d="m -81.107631,-100.000000 164.700772,200.000000 " style="stroke: #000000; fill:none;"/>
<path d="m -80.419360,-100.000000 154.240055,200.000000 " style="stroke: #000000; fill:none;"/>
<path d="m -79.783730,-100.000000 144.693618,200.000000 " style="stroke: #000000; fill:none;"/>
<path d="m -79.185417,-100.000000 135.971158,200.000000 " style="stroke: #000000; fill:none;"/>
<path d="m -78.610949,-100.000000 127.996002,200.000000 " style="stroke: #000000; fill:none;"/>
<path d="m -78.048348,-100.000000 120.702373,200.000000 " style="stroke: #000000; fill:none;"/>
<path d="m -77.486827,-100.000000 114.033180,200.000000 " style="stroke: #000000; fill:none;"/>
<path d="m -76.916536,-100.000000 107.938220,200.000000 " style="stroke: #000000; fill:none;"/>
<path d="m -76.328333,-100.000000 102.372696,200.000000 " style="stroke: #000000; fill:none;"/>
<path d="m -75.713595,-100.000000 97.295999,200.000000 " style="stroke: #000000; fill:none;"/>
<path d="m -75.064048,-100.000000 92.670685,200.000000 " style="stroke: #000000; fill:none;"/>
<path d="m -74.371629,-100.000000 88.461632,200.000000 " style="stroke: #000000; fill:none;"/>
<path d="m -73.628376,-100.000000 84.635338,200.000000 " style="stroke: #000000; fill:none;"/>
<path d="m -72.826338,-100.000000 81.159344,200.000000 " style="stroke: #000000; fill:none;"/>
<path d="m -71.957527,-100.000000 78.001762,200.000000 " style="stroke: #000000; fill:none;"/>
<path d="m -71.013885,-100.000000 75.130902,200.000000 " style="stroke: #000000; fill:none;"/>
<path d="m -69.987294,-100.000000 72.514985,200.000000 " style="stroke: #000000; fill:none;"/>
<path d="m -68.869611,-100.000000 70.121926,200.000000 " style="stroke: #000000; fill:none;"/>
<path d="m -67.652730,-100.000000 67.919196,200.000000 " style="stroke: #000000; fill:none;"/>
<path d="m -66.328676,-100.000000 65.873746,200.000000 " style="stroke: #000000; fill:none;"/>
<path d="m -64.889722,-100.000000 63.951989,200.000000 " style="stroke: #000000; fill:none;"/>
<path d="m -63.328519,-100.000000 62.119838,200.000000 " style="stroke: #000000; fill:none;"/>
<path d="m -61.638250,-100.000000 60.342795,200.000000 " style="stroke: #000000; fill:none;"/>
<path d="m -59.812780,-100.000000 58.586090,200.000000 " style="stroke: #000000; fill:none;"/>
<path d="m -57.846812,-100.000000 56.814852,200.000000 " style="stroke: #000000; fill:none;"/>
<path d="m -55.736031,-100.000000 54.994322,200.000000 " style="stroke: #000000; fill:none;"/>
<path d="m -53.477224,-100.000000 53.090097,200.000000 " style="stroke: #000000; fill:none;"/>
<path d="m -51.068384,-100.000000 51.068384,200.000000 " style="stroke: #000000; fill:none;"/>
<path d="m -48.508761,-100.000000 48.896271,200.000000 " style="stroke: #000000; fill:none;"/>
<path d="m -45.798883,-100.000000 46.541991,200.000000 " style="stroke: #000000; fill:none;"/>
<path d="m -42.940517,-100.000000 43.975169,200.000000 " style="stroke: #000000; fill:none;"/>
<path d="m -39.936580,-100.000000 41.167036,200.000000 " style="stroke: #000000; fill:none;"/>
<path d="m -36.790996,-100.000000 38.090597,200.000000 " style="stroke: #000000; fill:none;"/>
<path d="m -33.508490,-100.000000 34.720722,200.000000 " style="stroke: #000000; fill:none;"/>
<path d="m -30.094340,-100.000000 31.034168,200.000000 " style="stroke: #000000; fill:none;"/>
<path d="m -26.554083,-100.000000 27.009494,200.000000 " style="stroke: #000000; fill:none;"/>
<path d="m -22.893176,-100.000000 22.626870,200.000000 " style="stroke: #000000; fill:none;"/>
<path d="m -19.116644,-100.000000 17.867764,200.000000 " style="stroke: #000000; fill:none;"/>
<path d="m -15.228695,-100.000000 12.714497,200.000000 " style="stroke: #000000; fill:none;"/>
<path d="m -11.232338,-100.000000 7.149672,200.000000 " style="stroke: #000000; fill:none;"/>
<path d="m -7.128983,-100.000000 1.155450,200.000000 " style="stroke: #000000; fill:none;"/>
<path d="m -2.918051,-100.000000 -5.287309,200.000000 " style="stroke: #000000; fill:none;"/>
<path d="m 1.403434,-100.000000 -12.200079,200.000000 " style="stroke: #000000; fill:none;"/>
<path d="m 5.841258,-100.000000 -19.607865,200.000000 " style="stroke: #000000; fill:none;"/>
<path d="m 10.404467,-100.000000 -27.540612,200.000000 " style="stroke: #000000; fill:none;"/>
<path d="m 15.105868,-100.000000 -36.034871,200.000000 " style="stroke: #000000; fill:none;"/>
<path d="m 19.962615,-100.000000 -45.135777,200.000000 " style="stroke: #000000; fill:none;"/>
<path d="m 24.996943,-100.000000 -54.899466,200.000000 " style="stroke: #000000; fill:none;"/>
<path d="m 30.237083,-100.000000 -65.396054,200.000000 " style="stroke: #000000; fill:none;"/>
<path d="m 35.718479,-100.000000 -76.713424,200.000000 " style="stroke: #000000; fill:none;"/>
<path d="m 41.485410,-100.000000 -88.962116,200.000000 " style="stroke: #000000; fill:none;"/>
<path d="m 47.593203,-100.000000 -102.281800,200.000000 " style="stroke: #000000; fill:none;"/>
<path d="m 54.111293,-100.000000 -116.850018,200.000000 " style="stroke: #000000; fill:none;"/>
<path d="m 61.127512,-100.000000 -132.894256,200.000000 " style="stroke: #000000; fill:none;"/>
<path d="m 68.754234,-100.000000 -150.708978,200.000000 " style="stroke: #000000; fill:none;"/>
<path d="m 77.137296,-100.000000 -170.680227,200.000000 " style="stroke: #000000; fill:none;"/>
<path d="m 86.469295,-100.000000 -186.469295,192.910500 " style="stroke: #000000; fill:none;"/>
<path d="m 97.009923,-100.000000 -197.009923,179.645222 " style="stroke: #000000; fill:none;"/>
<path d="m 100.000000,-92.696218 -200.000000,160.205425 " style="stroke: #000000; fill:none;"/>
<path d="m 100.000000,-83.688996 -200.000000,139.984064 " style="stroke: #000000; fill:none;"/>
<path d="m 100.000000,-75.532167 -200.000000,121.367832 " style="stroke: #000000; fill:none;"/>
<path d="m 100.000000,-68.087445 -200.000000,104.081897 " style="stroke: #000000; fill:none;"/>
<path d="m 100.000000,-61.242937 -200.000000,87.901452 " style="stroke: #000000; fill:none;"/>
<path d="m 100.000000,-54.907237 -200.000000,72.640711 " style="stroke: #000000; fill:none;"/>
<path d="m 100.000000,-49.005017 -200.000000,58.144739 " style="stroke: #000000; fill:none;"/>
<path d="m 100.000000,-43.473693 -200.000000,44.283328 " style="stroke: #000000; fill:none;"/>
<path d="m 100.000000,-38.260879 -200.000000,30.946382 " style="stroke: #000000; fill:none;"/>
<path d="m 100.000000,-33.322423 -200.000000,18.040431 " style="stroke: #000000; fill:none;"/>
<path d="m 100.000000,-28.620887 -200.000000,5.486019 " style="stroke: #000000; fill:none;"/>
<path d="m 100.000000,-24.124359 -200.000000,-6.784234 " style="stroke: #000000; fill:none;"/>
<path d="m 100.000000,-19.805534 -200.000000,-18.827023 " style="stroke: #000000; fill:none;"/>
<path d="m 100.000000,-15.641000 -200.000000,-30.689316 " style="stroke: #000000; fill:none;"/>
<path d="m 100.000000,-11.610692 -200.000000,-42.408953 " style="stroke: #000000; fill:none;"/>
<path d="m 100.000000,-7.697486 -200.000000,-54.014948 " style="stroke: #000000; fill:none;"/>
<path d="m 100.000000,-3.886903 -200.000000,-65.527564 " style="stroke: #000000; fill:none;"/>
<path d="m 100.000000,-0.166909 -200.000000,-76.958197 " style="stroke: #000000; fill:none;"/>
<path d="m 100.000000,3.472195 -200.000000,-88.309161 " style="stroke: #000000; fill:none;"/>
<path d="m 100.000000,7.037835 -200.000000,-99.573403 " style="stroke: #000000; fill:none;"/>
<path d="m 100.000000,10.535163 -199.640400,-110.535163 " style="stroke: #000000; fill:none;"/>
<path d="m 100.000000,13.967032 -187.191247,-113.967032 " style="stroke: #000000; fill:none;"/>
<path d="m 100.000000,17.333949 -176.933472,-117.333949 " style="stroke: #000000; fill:none;"/>
<path d="m 100.000000,20.634052 -168.383756,-120.634052 " style="stroke: #000000; fill:none;"/>
<path d="m 100.000000,23.863103 -161.202625,-123.863103 " style="stroke: #000000; fill:none;"/>
<path d="m 100.000000,27.014555 -155.144576,-127.014555 " style="stroke: #000000; fill:none;"/>
<path d="m 100.000000,30.079683 -150.027345,-130.079683 " style="stroke: #000000; fill:none;"/>
<path d="m 100.000000,33.047831 -145.712249,-133.047831 " style="stroke: #000000; fill:none;"/>
<path d="m 100.000000,35.906754 -142.091182,-135.906754 " style="stroke: #000000; fill:none;"/>
<path d="m 100.000000,38.643083 -139.077767,-138.643083 " style="stroke: #000000; fill:none;"/>
<path d="m 100.000000,41.242880 -136.601184,-141.242880 " style="stroke: #000000; fill:none;"/>
<path d="m 100.000000,43.692267 -134.601769,-143.692267 " style="stroke: #000000; fill:none;"/>
<path d="m 100.000000,45.978088 -133.027824,-145.978088 " style="stroke: #000000; fill:none;"/>
<path d="m 100.000000,48.088564 -131.833265,-148.088564 " style="stroke: #000000; fill:none;"/>
<path d="m 100.000000,50.013883 -130.975870,-150.013883 " style="stroke: #000000; fill:none;"/>
<path d="m 100.000000,51.746691 -130.415959,-151.746691 " style="stroke: #000000; fill:none;"/>
<path d="m 100.000000,53.282448 -130.115401,-153.282448 " style="stroke: #000000; fill:none;"/>
<path d="m 100.000000,54.619620 -130.036867,-154.619620 " style="stroke: #000000; fill:none;"/>
<path d="m 100.000000,55.759721 -130.143274,-155.759721 " style="stroke: #000000; fill:none;"/>
<path d="m 100.000000,56.707196 -130.397384,-156.707196 " style="stroke: #000000; fill:none;"/>
<path d="m 100.000000,57.469190 -130.761534,-157.469190 " style="stroke: #000000; fill:none;"/>
<path d="m 100.000000,58.055211 -131.197491,-158.055211 " style="stroke: #000000; fill:none;"/>
<path d="m 100.000000,58.476748 -131.666410,-158.476748 " style="stroke: #000000; fill:none;"/>
<path d="m 100.000000,58.746860 -132.128903,-158.746860 " style="stroke: #000000; fill:none;"/>
<path d="m 100.000000,58.879773 -132.545227,-158.879773 " style="stroke: #000000; fill:none;"/>
<path d="m 100.000000,58.890509 -132.875574,-158.890509 " style="stroke: #000000; fill:none;"/>
<path d="m 100.000000,58.794562 -133.080483,-158.794562 " style="stroke: #000000; fill:none;"/>
<path d="m 100.000000,58.607636 -133.121367,-158.607636 " style="stroke: #000000; fill:none;"/>
<path d="m 100.000000,58.345440 -132.961132,-158.345440 " style="stroke: #000000; fill:none;"/>
<path d="m 100.000000,58.023549 -132.564893,-158.023549 " style="stroke: #000000; fill:none;"/>
<path d="m 100.000000,57.657326 -131.900743,-157.657326 " style="stroke: #000000; fill:none;"/>
<path d="m 100.000000,57.261895 -130.940539,-157.261895 " style="stroke: #000000; fill:none;"/>
<path d="m 100.000000,56.852169 -129.660670,-156.852169 " style="stroke: #000000; fill:none;"/>
<path d="m 100.000000,56.442922 -128.042736,-156.442922 " style="stroke: #000000; fill:none;"/>
<path d="m 100.000000,56.048909 -126.074095,-156.048909 " style="stroke: #000000; fill:none;"/>
<path d="m 100.000000,55.685028 -123.748231,-155.685028 " style="stroke: #000000; fill:none;"/>
<path d="m 100.000000,55.366532 -121.064878,-155.366532 " style="stroke: #000000; fill:none;"/>
<path d="m 100.000000,55.109305 -118.029902,-155.109305 " style="stroke: #000000; fill:none;"/>
<path d="m 100.000000,54.930202 -114.654910,-154.930202 " style="stroke: #000000; fill:none;"/>
<path d="m 100.000000,54.847500 -110.956617,-154.847500 " style="stroke: #000000; fill:none;"/>
<path d="m 100.000000,54.881480 -106.955987,-154.881480 " style="stroke: #000000; fill:none;"/>
<path d="m 100.000000,55.055214 -102.677221,-155.055214 " style="stroke: #000000; fill:none;"/>
<path d="m 100.000000,55.395638 -98.146636,-155.395638 " style="stroke: #000000; fill:none;"/>
<path d="m 100.000000,55.935074 -93.391512,-155.935074 " style="stroke: #000000; fill:none;"/>
<path d="m 100.000000,56.713425 -88.438967,-156.713425 " style="stroke: #000000; fill:none;"/>
<path d="m 100.000000,57.781448 -83.314917,-157.781448 " style="stroke: #000000; fill:none;"/>
<path d="m 100.000000,59.205776 -78.043169,-159.205776 " style="stroke: #000000; fill:none;"/>
<path d="m 100.000000,61.076908 -72.644664,-161.076908 " style="stroke: #000000; fill:none;"/>
<path d="m 100.000000,63.522427 -67.136890,-163.522427 " style="stroke: #000000; fill:none;"/>
<path d="m 100.000000,66.729964 -61.533462,-166.729964 " style="stroke: #000000; fill:none;"/>
<path d="m 100.000000,70.989411 -55.843853,-170.989411 " style="stroke: #000000; fill:none;"/>
<path d="m 100.000000,76.776309 -50.073262,-176.776309 " style="stroke: #000000; fill:none;"/>
<path d="m 100.000000,84.932342 -44.222580,-184.932342 " style="stroke: #000000; fill:none;"/>
<path d="m 100.000000,97.106561 -38.288450,-197.106561 " style="stroke: #000000; fill:none;"/>
<path d="m 97.467505,100.000000 -29.730867,-200.000000 " style="stroke: #000000; fill:none;"/>
<path d="m 94.331132,100.000000 -20.466920,-200.000000 " style="stroke: #000000; fill:none;"/>
<path d="m 91.163927,100.000000 -11.054250,-200.000000 " style="stroke: #000000; fill:none;"/>
<path d="m 87.976191,100.000000 -1.483999,-200.000000 " style="stroke: #000000; fill:none;"/>
<path d="m 84.777555,100.000000 8.257014,-200.000000 " style="stroke: #000000; fill:none;"/>
<path d="m 81.577023,100.000000 18.186188,-200.000000 " style="stroke: #000000; fill:none;"/>
<path d="m 78.383011,100.000000 21.616989,-152.634967 " style="stroke: #000000; fill:none;"/>
<path d="m 75.203395,100.000000 24.796605,-128.149823 " style="stroke: #000000; fill:none;"/>
<path d="m 72.045560,100.000000 27.954440,-113.315718 " style="stroke: #000000; fill:none;"/>
<path d="m 68.916433,100.000000 31.083567,-103.133712 " style="stroke: #000000; fill:none;"/>
<path d="m 65.822511,100.000000 34.177489,-95.527135 " style="stroke: #000000; fill:none;"/>
<path d="m 62.769880,100.000000 37.230120,-89.479776 " style="stroke: #000000; fill:none;"/>
<path d="m 59.764202,100.000000 40.235798,-84.436847 " style="stroke: #000000; fill:none;"/>
<path d="m 56.810690,100.000000 43.189310,-80.070977 " style="stroke: #000000; fill:none;"/>
<path d="m 53.914049,100.000000 46.085951,-76.177676 " style="stroke: #000000; fill:none;"/>
<path d="m 51.078380,100.000000 48.921620,-72.623755 " style="stroke: #000000; fill:none;"/>
<path d="m 48.307041,100.000000 51.692959,-69.319847 " style="stroke: #000000; fill:none;"/>
<path d="m 45.602464,100.000000 54.397536,-66.204835 " style="stroke: #000000; fill:none;"/>
<path d="m 42.965908,100.000000 57.034092,-63.236584 " style="stroke: #000000; fill:none;"/>
<path d="m 40.397140,100.000000 59.602860,-60.386161 " style="stroke: #000000; fill:none;"/>
<path d="m 37.894049,100.000000 62.105951,-57.634107 " style="stroke: #000000; fill:none;"/>
<path d="m 35.452157,100.000000 64.547843,-54.967935 " style="stroke: #000000; fill:none;"/>
<path d="m 33.064032,100.000000 66.935968,-52.380390 " style="stroke: #000000; fill:none;"/>
<path d="m 30.718581,100.000000 69.281419,-49.868190 " style="stroke: #000000; fill:none;"/>
<path d="m 28.400202,100.000000 71.599798,-47.431075 " style="stroke: #000000; fill:none;"/>
<path d="m 26.087765,100.000000 73.912235,-45.071055 " style="stroke: #000000; fill:none;"/>
<path d="m 23.753393,100.000000 76.246607,-42.791779 " style="stroke: #000000; fill:none;"/>
<path d="m 21.360967,100.000000 78.639033,-40.597991 " style="stroke: #000000; fill:none;"/>
<path d="m 18.864286,100.000000 81.135714,-38.495029 " style="stroke: #000000; fill:none;"/>
<path d="m 16.204703,100.000000 83.795297,-36.488358 " style="stroke: #000000; fill:none;"/>
<path d="m 13.308032,100.000000 86.691968,-34.583120 " style="stroke: #000000; fill:none;"/>
<path d="m 10.080303,100.000000 89.919697,-32.783715 " style="stroke: #000000; fill:none;"/>
<path d="m 6.401734,100.000000 93.598266,-31.093384 " style="stroke: #000000; fill:none;"/>
<path d="m 2.117786,100.000000 97.882214,-29.513832 " style="stroke: #000000; fill:none;"/>
<path d="m -2.974640,100.000000 102.974640,-28.044869 " style="stroke: #000000; fill:none;"/>
<path d="m -9.149384,100.000000 109.149384,-26.684101 " style="stroke: #000000; fill:none;"/>
<path d="m -16.788293,100.000000 116.788293,-25.426662 " style="stroke: #000000; fill:none;"/>
<path d="m -26.446891,100.000000 126.446891,-24.265006 " style="stroke: #000000; fill:none;"/>
<path d="m -38.977090,100.000000 138.977090,-23.188759 " style="stroke: #000000; fill:none;"/>
<path d="m -55.773610,100.000000 155.773610,-22.184641 " style="stroke: #000000; fill:none;"/>
<path d="m -79.317436,100.000000 179.317436,-21.236455 " style="stroke: #000000; fill:none;"/>
<path d="m -100.000000,98.622847 200.000000,-18.947996 " style="stroke: #000000; fill:none;"/>
<path d="m -100.000000,94.810616 200.000000,-14.239547 " style="stroke: #000000; fill:none;"/>
<path d="m -100.000000,91.007731 200.000000,-9.531183 " style="stroke: #000000; fill:none;"/>
<path d="m -100.000000,87.212085 200.000000,-4.794107 " style="stroke: #000000; fill:none;"/>
<path d="m -100.000000,83.424137 200.000000,-0.000000 " style="stroke: #000000; fill:none;"/>
<path d="m -100.000000,79.646563 200.000000,4.879063 " style="stroke: #000000; fill:none;"/>
<path d="m -100.000000,75.883895 200.000000,9.870717 " style="stroke: #000000; fill:none;"/>
<path d="m -100.000000,72.142152 200.000000,15.002432 " style="stroke: #000000; fill:none;"/>
<path d="m -100.000000,68.428485 200.000000,20.301679 " style="stroke: #000000; fill:none;"/>
<path d="m -100.000000,64.750834 200.000000,25.796136 " style="stroke: #000000; fill:none;"/>
<path d="m -100.000000,61.117601 200.000000,31.513949 " style="stroke: #000000; fill:none;"/>
<path d="m -100.000000,57.537373 200.000000,37.484060 " style="stroke: #000000; fill:none;"/>
<path d="m -100.000000,54.018664 200.000000,43.736604 " style="stroke: #000000; fill:none;"/>
<path d="m -100.000000,50.569707 196.528648,49.430293 " style="stroke: #000000; fill:none;"/>
<path d="m -100.000000,47.198288 184.561615,52.801712 " style="stroke: #000000; fill:none;"/>
<path d="m -100.000000,43.911621 173.866172,56.088379 " style="stroke: #000000; fill:none;"/>
<path d="m -100.000000,40.716260 164.116814,59.283740 " style="stroke: #000000; fill:none;"/>
<path d="m -100.000000,37.618050 155.093105,62.381950 " style="stroke: #000000; fill:none;"/>
<path d="m -100.000000,34.622110 146.641419,65.377890 " style="stroke: #000000; fill:none;"/>
<path d="m -100.000000,31.732840 138.652003,68.267160 " style="stroke: #000000; fill:none;"/>
<path d="m -100.000000,28.953951 131.044690,71.046049 " style="stroke: #000000; fill:none;"/>
<path d="m -100.000000,26.288506 123.759720,73.711494 " style="stroke: #000000; fill:none;"/>
<path d="m -100.000000,23.738978 116.751697,76.261022 " style="stroke: #000000; fill:none;"/>
<path d="m -100.000000,21.307304 109.985522,78.692696 " style="stroke: #000000; fill:none;"/>
<path d="m -100.000000,18.994945 103.433627,81.005055 " style="stroke: #000000; fill:none;"/>
<path d="m -100.000000,16.802942 97.074062,83.197058 " style="stroke: #000000; fill:none;"/>
<path d="m -100.000000,14.731966 90.889163,85.268034 " style="stroke: #000000; fill:none;"/>
<path d="m -100.000000,12.782360 84.864624,87.217640 " style="stroke: #000000; fill:none;"/>
<path d="m -100.000000,10.954172 78.988846,89.045828 " style="stroke: #000000; fill:none;"/>
<path d="m -100.000000,9.247178 73.252472,90.752822 " style="stroke: #000000; fill:none;"/>
<path d="m -100.000000,7.660893 67.648066,92.339107 " style="stroke: #000000; fill:none;"/>
<path d="m -100.000000,6.194573 62.169885,93.805427 " style="stroke: #000000; fill:none;"/>
<path d="m -100.000000,4.847206 56.813708,95.152794 " style="stroke: #000000; fill:none;"/>
<path d="m -100.000000,3.617488 51.576723,96.382512 " style="stroke: #000000; fill:none;"/>
<path d="m -100.000000,2.503785 46.457428,97.496215 " style="stroke: #000000; fill:none;"/>
<path d="m -100.000000,1.504081 41.455564,98.495919 " style="stroke: #000000; fill:none;"/>
<path d="m -100.000000,0.615887 36.572045,99.384113 " style="stroke: #000000; fill:none;"/>
<path d="m -100.000000,-0.163896 31.808896,100.163896 " style="stroke: #000000; fill:none;"/>
<path d="m -100.000000,-0.839219 27.169186,100.839219 " style="stroke: #000000; fill:none;"/>
<path d="m -100.000000,-1.415367 22.656953,101.415367 " style="stroke: #000000; fill:none;"/>
<path d="m -100.000000,-1.900032 18.277117,101.900032 " style="stroke: #000000; fill:none;"/>
<path d="m -100.000000,-2.306137 14.035374,102.306137 " style="stroke: #000000; fill:none;"/>
<path d="m -100.000000,-2.661148 9.938082,102.661148 " style="stroke: #000000; fill:none;"/>
<path d="m -100.000000,-3.051382 5.992111,103.051382 " style="stroke: #000000; fill:none;"/>
<path d="m -100.000000,-4.113655 2.204687,104.113655 " style="stroke: #000000; fill:none;"/>
<path d="m -98.590534,-100.000000 -1.409466,99.740545 " style="stroke: #000000; fill:none;"/>
<path d="m -100.000000,-1.816504 4.691407,-98.183496 " style="stroke: #000000; fill:none;"/>
<path d="m -100.000000,-1.952140 7.821386,-98.047860 " style="stroke: #000000; fill:none;"/>
<path d="m -100.000000,-1.866063 10.802892,-98.133937 " style="stroke: #000000; fill:none;"/>
<path d="m -100.000000,-1.675313 13.637190,-98.324687 " style="stroke: #000000; fill:none;"/>
<path d="m -100.000000,-1.415975 16.323655,-98.584025 " style="stroke: #000000; fill:none;"/>
<path d="m -100.000000,-1.106617 18.860146,-98.893383 " style="stroke: #000000; fill:none;"/>
<path d="m -100.000000,-0.760314 21.243407,-99.239686 " style="stroke: #000000; fill:none;"/>
<path d="m -100.000000,-0.388064 23.469490,-99.611936 " style="stroke: #000000; fill:none;"/>
<path d="m -100.000000,0.000000 25.534192,-100.000000 " style="stroke: #000000; fill:none;"/>
<path d="m -100.000000,0.394115 27.433496,-100.394115 " style="stroke: #000000; fill:none;"/>
<path d="m -100.000000,0.784679 29.163998,-100.784679 " style="stroke: #000000; fill:none;"/>
<path d="m -100.000000,1.162158 30.723309,-101.162158 " style="stroke: #000000; fill:none;"/>
<path d="m -100.000000,1.517066 32.110412,-101.517066 " style="stroke: #000000; fill:none;"/>
<path d="m -100.000000,1.839967 33.325970,-101.839967 " style="stroke: #000000; fill:none;"/>
<path d="m -100.000000,2.121516 34.372558,-102.121516 " style="stroke: #000000; fill:none;"/>
<path d="m -100.000000,2.352507 35.254835,-102.352507 " style="stroke: #000000; fill:none;"/>
<path d="m -100.000000,2.523945 35.979628,-102.523945 " style="stroke: #000000; fill:none;"/>
<path d="m -100.000000,2.627144 36.555948,-102.627144 " style="stroke: #000000; fill:none;"/>
<path d="m -100.000000,2.653835 36.994933,-102.653835 " style="stroke: #000000; fill:none;"/>
<path d="m -100.000000,2.596304 37.309724,-102.596304 " style="stroke: #000000; fill:none;"/>
<path d="m -100.000000,2.447553 37.515287,-102.447553 " style="stroke: #000000; fill:none;"/>
<path d="m -100.000000,2.201477 37.628194,-102.201477 " style="stroke: #000000; fill:none;"/>
<path d="m -100.000000,1.853058 37.666360,-101.853058 " style="stroke: #000000; fill:none;"/>
<path d="m -100.000000,1.398558 37.648764,-101.398558 " style="stroke: #000000; fill:none;"/>
<path d="m -100.000000,0.835703 37.595149,-100.835703 " style="stroke: #000000; fill:none;"/>
<path d="m -100.000000,0.163832 37.525714,-100.163832 " style="stroke: #000000; fill:none;"/>
<path d="m -100.000000,-0.616011 37.460809,-99.383989 " style="stroke: #000000; fill:none;"/>
<path d="m -100.000000,-1.501074 37.420629,-98.498926 " style="stroke: #000000; fill:none;"/>
<path d="m -100.000000,-2.486998 37.424925,-97.513002 " style="stroke: #000000; fill:none;"/>
<path d="m -100.000000,-3.568050 37.492723,-96.431950 " style="stroke: #000000; fill:none;"/>
<path d="m -100.000000,-4.737479 37.642066,-95.262521 " style="stroke: #000000; fill:none;"/>
<path d="m -100.000000,-5.987988 37.889787,-94.012012 " style="stroke: #000000; fill:none;"/>
<path d="m -100.000000,-7.312290 38.251301,-92.687710 " style="stroke: #000000; fill:none;"/>
<path d="m -100.000000,-8.703685 38.740441,-91.296315 " style="stroke: #000000; fill:none;"/>
<path d="m -100.000000,-10.156618 39.369336,-89.843382 " style="stroke: #000000; fill:none;"/>
<path d="m -100.000000,-11.667135 40.148331,-88.332865 " style="stroke: #000000; fill:none;"/>
<path d="m -100.000000,-13.233208 41.085964,-86.766792 " style="stroke: #000000; fill:none;"/>
<path d="m -100.000000,-14.854892 42.189000,-85.145108 " style="stroke: #000000; fill:none;"/>
<path d="m -100.000000,-16.534316 43.462521,-83.465684 " style="stroke: #000000; fill:none;"/>
<path d="m -100.000000,-18.275523 44.910087,-81.724477 " style="stroke: #000000; fill:none;"/>
<path d="m -100.000000,-20.084211 46.533958,-79.915789 " style="stroke: #000000; fill:none;"/>
<path d="m -100.000000,-21.967407 48.335388,-78.032593 " style="stroke: #000000; fill:none;"/>
<path d="m -100.000000,-23.933129 50.314999,-76.066871 " style="stroke: #000000; fill:none;"/>
<path d="m -100.000000,-25.990079 52.473229,-74.009921 " style="stroke: #000000; fill:none;"/>
<path d="m -100.000000,-28.147390 54.810893,-71.852610 " style="stroke: #000000; fill:none;"/>
<path d="m -100.000000,-30.414443 57.329867,-69.585557 " style="stroke: #000000; fill:none;"/>
<path d="m -100.000000,-32.800763 60.033951,-67.199237 " style="stroke: #000000; fill:none;"/>
<path d="m -100.000000,-35.315998 62.929995,-64.684002 " style="stroke: #000000; fill:none;"/>
<path d="m -100.000000,-37.969956 66.029426,-62.030044 " style="stroke: #000000; fill:none;"/>
<path d="m -100.000000,-40.772707 69.350421,-59.227293 " style="stroke: #000000; fill:none;"/>
<path d="m -100.000000,-43.734730 72.921132,-56.265270 " style="stroke: #000000; fill:none;"/>
<path d="m -100.000000,-46.867101 76.784748,-53.132899 " style="stroke: #000000; fill:none;"/>
<path d="m -100.000000,-50.181716 81.007824,-49.818284 " style="stroke: #000000; fill:none;"/>
<path d="m -100.000000,-53.691537 85.694812,-46.308463 " style="stroke: #000000; fill:none;"/>
<path d="m -100.000000,-57.410869 91.015062,-42.589131 " style="stroke: #000000; fill:none;"/>
<path d="m -100.000000,-61.355661 97.257060,-38.644339 " style="stroke: #000000; fill:none;"/>
<path d="m -100.000000,-65.543840 104.948586,-34.456160 " style="stroke: #000000; fill:none;"/>
<path d="m -100.000000,-69.995684 115.160209,-30.004316 " style="stroke: #000000; fill:none;"/>
<path d="m -100.000000,-74.734227 130.429883,-25.265773 " style="stroke: #000000; fill:none;"/>
<path d="m -100.000000,-79.785729 158.559398,-20.214271 " style="stroke: #000000; fill:none;"/>
<path d="m -100.000000,-85.180204 200.000000,-12.305841 " style="stroke: #000000; fill:none;"/>
<path d="m -100.000000,-90.952026 200.000000,0.903432 " style="stroke: #000000; fill:none;"/>
<path d="m -100.000000,-97.140633 200.000000,14.204776 " style="stroke: #000000; fill:none;"/>
<path d="m -72.602680,-100.000000 172.602680,23.885376 " style="stroke: #000000; fill:none;"/>
<path d="m -47.074777,-100.000000 147.074777,30.446635 " style="stroke: #000000; fill:none;"/>
<path d="m -32.596232,-100.000000 132.596232,36.777890 " style="stroke: #000000; fill:none;"/>
<path d="m -22.617249,-100.000000 122.617249,42.907681 " style="stroke: #000000; fill:none;"/>
<path d="m -14.906148,-100.000000 114.906148,48.863292 " style="stroke: #000000; fill:none;"/>
<path d="m -8.494858,-100.000000 108.494858,54.670936 " style="stroke: #000000; fill:none;"/>
<path d="m -2.895980,-100.000000 102.895980,60.355960 " style="stroke: #000000; fill:none;"/>
<path d="m 2.162060,-100.000000 97.837940,65.943067 " style="stroke: #000000; fill:none;"/>
<path d="m 6.841971,-100.000000 93.158029,71.456551 " style="stroke: #000000; fill:none;"/>
<path d="m 11.246523,-100.000000 88.753477,76.920545 " style="stroke: #000000; fill:none;"/>
<path d="m 15.443115,-100.000000 84.556885,82.359290 " style="stroke: #000000; fill:none;"/>
<path d="m 19.477022,-100.000000 80.522978,87.797421 " style="stroke: #000000; fill:none;"/>
<path d="m 23.378971,-100.000000 76.621029,93.260276 " style="stroke: #000000; fill:none;"/>
<path d="m 27.169684,-100.000000 72.830316,98.774235 " style="stroke: #000000; fill:none;"/>
<path d="m 30.862721,-100.000000 69.137279,104.367077 " style="stroke: #000000; fill:none;"/>
<path d="m 34.466326,-100.000000 65.533674,110.068381 " style="stroke: #000000; fill:none;"/>
<path d="m 37.984686,-100.000000 62.015314,115.909946 " style="stroke: #000000; fill:none;"/>
<path d="m 41.418817,-100.000000 58.581183,121.926242 " style="stroke: #000000; fill:none;"/>
<path d="m 44.767236,-100.000000 55.232764,128.154882 " style="stroke: #000000; fill:none;"/>
<path d="m 48.026490,-100.000000 51.973510,134.637089 " style="stroke: #000000; fill:none;"/>
<path d="m 51.191609,-100.000000 48.808391,141.418144 " style="stroke: #000000; fill:none;"/>
<path d="m 54.256508,-100.000000 45.743492,148.547760 " style="stroke: #000000; fill:none;"/>
<path d="m 57.214371,-100.000000 42.785629,156.080331 " style="stroke: #000000; fill:none;"/>
<path d="m 60.058009,-100.000000 39.941991,164.074964 " style="stroke: #000000; fill:none;"/>
<path d="m 62.780216,-100.000000 37.219784,172.595186 " style="stroke: #000000; fill:none;"/>
<path d="m 65.374104,-100.000000 34.625896,181.708203 " style="stroke: #000000; fill:none;"/>
<path d="m 67.833428,-100.000000 32.166572,191.483593 " style="stroke: #000000; fill:none;"/>
<path d="m 70.152878,-100.000000 29.552869,200.000000 " style="stroke: #000000; fill:none;"/>
<path d="m 72.328348,-100.000000 25.946294,200.000000 " style="stroke: #000000; fill:none;"/>
<path d="m 74.357148,-100.000000 22.746013,200.000000 " style="stroke: #000000; fill:none;"/>
<path d="m 76.238185,-100.000000 19.920754,200.000000 " style="stroke: #000000; fill:none;"/>
<path d="m 77.972080,-100.000000 17.439041,200.000000 " style="stroke: #000000; fill:none;"/>
<path d="m 79.561227,-100.000000 15.268936,200.000000 " style="stroke: #000000; fill:none;"/>
<path d="m 81.009800,-100.000000 13.377893,200.000000 " style="stroke: #000000; fill:none;"/>
<path d="m 82.323701,-100.000000 11.732696,200.000000 " style="stroke: #000000; fill:none;"/>
<path d="m 83.510458,-100.000000 10.299493,200.000000 " style="stroke: #000000; fill:none;"/>
<path d="m 84.579073,-100.000000 9.043875,200.000000 " style="stroke: #000000; fill:none;"/>
<path d="m 85.539836,-100.000000 7.931013,200.000000 " style="stroke: #000000; fill:none;"/>
<path d="m 86.404112,-100.000000 6.925827,200.000000 " style="stroke: #000000; fill:none;"/>
<path d="m 87.184096,-100.000000 5.993178,200.000000 " style="stroke: #000000; fill:none;"/>
<path d="m 87.892569,-100.000000 5.098083,200.000000 " style="stroke: #000000; fill:none;"/>
<path d="m 88.542647,-100.000000 4.205929,200.000000 " style="stroke: #000000; fill:none;"/>
<path d="m 89.147529,-100.000000 3.282705,200.000000 " style="stroke: #000000; fill:none;"/>
<path d="m 89.720266,-100.000000 2.295214,200.000000 " style="stroke: #000000; fill:none;"/>
<path d="m 90.273548,-100.000000 1.211291,200.000000 " style="stroke: #000000; fill:none;"/>
<path d="m 90.819517,-100.000000 0.000000,200.000000 " style="stroke: #000000; fill:none;"/>
<path d="m 91.369609,-100.000000 -1.368184,200.000000 " style="stroke: #000000; fill:none;"/>
<path d="m 91.934435,-100.000000 -2.921225,200.000000 " style="stroke: #000000; fill:none;"/>
<path d="m 92.523702,-100.000000 -4.685400,200.000000 " style="stroke: #000000; fill:none;"/>
<path d="m 93.146177,-100.000000 -6.685216,200.000000 " style="stroke: #000000; fill:none;"/>
<path d="m 93.809684,-100.000000 -8.943376,200.000000 " style="stroke: #000000; fill:none;"/>
<path d="m 94.521161,-100.000000 -11.480785,200.000000 " style="stroke: #000000; fill:none;"/>
<path d="m 95.286744,-100.000000 -14.316629,200.000000 " style="stroke: #000000; fill:none;"/>
<path d="m 96.111901,-100.000000 -17.468499,200.000000 " style="stroke: #000000; fill:none;"/>
<path d="m 97.001594,-100.000000 -20.952590,200.000000 " style="stroke: #000000; fill:none;"/>
<path d="m 97.960480,-100.000000 -24.783960,200.000000 " style="stroke: #000000; fill:none;"/>
<path d="m 98.993135,-100.000000 -28.976852,200.000000 " style="stroke: #000000; fill:none;"/>
<path d="m 100.000000,-99.378139 -33.440782,199.378139 " style="stroke: #000000; fill:none;"/>
<path d="m 100.000000,-93.251589 -37.203340,193.251589 " style="stroke: #000000; fill:none;"/>
<path d="m 100.000000,-88.219924 -41.279876,188.219924 " style="stroke: #000000; fill:none;"/>
<path d="m 100.000000,-84.028304 -45.678973,184.028304 " style="stroke: #000000; fill:none;"/>
<path d="m 100.000000,-80.486933 -50.409636,180.486933 " style="stroke: #000000; fill:none;"/>
<path d="m 100.000000,-77.451690 -55.481671,177.451690 " style="stroke: #000000; fill:none;"/>
<path d="m 100.000000,-74.811269 -60.906120,174.811269 " style="stroke: #000000; fill:none;"/>
<path d="m 100.000000,-72.478411 -66.695751,172.478411 " style="stroke: #000000; fill:none;"/>
<path d="m 100.000000,-70.383815 -72.865624,170.383815 " style="stroke: #000000; fill:none;"/>
<path d="m 100.000000,-68.471808 -79.433736,168.471808 " style="stroke: #000000; fill:none;"/>
<path d="m 100.000000,-66.697223 -86.421758,166.697223 " style="stroke: #000000; fill:none;"/>
<path d="m 100.000000,-65.023116 -93.855905,165.023116 " style="stroke: #000000; fill:none;"/>
<path d="m 100.000000,-63.419050 -101.767945,163.419050 " style="stroke: #000000; fill:none;"/>
<path d="m 100.000000,-61.859811 -110.196415,161.859811 " style="stroke: #000000; fill:none;"/>
<path d="m 100.000000,-60.324408 -119.188089,160.324408 " style="stroke: #000000; fill:none;"/>
<path d="m 100.000000,-58.795303 -128.799772,158.795303 " style="stroke: #000000; fill:none;"/>
<path d="m 100.000000,-57.257791 -139.100551,157.257791 " style="stroke: #000000; fill:none;"/>
<path d="m 100.000000,-55.699505 -150.174625,155.699505 " style="stroke: #000000; fill:none;"/>
<path d="m 100.000000,-54.110004 -162.124949,154.110004 " style="stroke: #000000; fill:none;"/>
<path d="m 100.000000,-52.480433 -175.077982,152.480433 " style="stroke: #000000; fill:none;"/>
<path d="m 100.000000,-50.803233 -189.189970,150.803233 " style="stroke: #000000; fill:none;"/>
<path d="m 100.000000,-49.071890 -200.000000,145.680871 " style="stroke: #000000; fill:none;"/>
<path d="m 100.000000,-47.280720 -200.000000,132.853709 " style="stroke: #000000; fill:none;"/>
<path d="m 100.000000,-45.424676 -200.000000,120.839779 " style="stroke: #000000; fill:none;"/>
<path d="m 100.000000,-43.499180 -200.000000,109.554211 " style="stroke: #000000; fill:none;"/>
<path d="m 100.000000,-41.499979 -200.000000,98.923807 " style="stroke: #000000; fill:none;"/>
<path d="m 100.000000,-39.423018 -200.000000,88.885291 " style="stroke: #000000; fill:none;"/>
<path d="m 100.000000,-37.264329 -200.000000,79.383823 " style="stroke: #000000; fill:none;"/>
<path d="m 100.000000,-35.019946 -200.000000,70.371741 " style="stroke: #000000; fill:none;"/>
<path d="m 100.000000,-32.685835 -200.000000,61.807480 " style="stroke: #000000; fill:none;"/>
<path d="m 100.000000,-30.257849 -200.000000,53.654632 " style="stroke: #000000; fill:none;"/>
<path d="m 100.000000,-27.731698 -200.000000,45.881123 " style="stroke: #000000; fill:none;"/>
<path d="m 100.000000,-25.102951 -200.000000,38.458485 " style="stroke: #000000; fill:none;"/>
<path d="m 100.000000,-22.367047 -200.000000,31.361209 " style="stroke: #000000; fill:none;"/>
<path d="m 100.000000,-19.519345 -200.000000,24.566154 " style="stroke: #000000; fill:none;"/>
<path d="m 100.000000,-16.555175 -200.000000,18.052022 " style="stroke: #000000; fill:none;"/>
<path d="m 100.000000,-13.469922 -200.000000,11.798876 " style="stroke: #000000; fill:none;"/>
<path d="m 100.000000,-10.259117 -200.000000,5.787700 " style="stroke: #000000; fill:none;"/>
<path d="m 100.000000,-6.918537 -200.000000,0.000000 " style="stroke: #000000; fill:none;"/>
<path d="m 100.000000,-3.444313 -200.000000,-5.582551 " style="stroke: #000000; fill:none;"/>
<path d="m 100.000000,0.166971 -200.000000,-10.978440 " style="stroke: #000000; fill:none;"/>
<path d="m 100.000000,3.918185 -200.000000,-16.206596 " style="stroke: #000000; fill:none;"/>
<path d="m 100.000000,7.811587 -200.000000,-21.286647 " style="stroke: #000000; fill:none;"/>
<path d="m 100.000000,11.848775 -200.000000,-26.239127 " style="stroke: #000000; fill:none;"/>
<path d="m 100.000000,16.030685 -200.000000,-31.085666 " style="stroke: #000000; fill:none;"/>
<path d="m 100.000000,20.357632 -200.000000,-35.849145 " style="stroke: #000000; fill:none;"/>
<path d="m 100.000000,24.829391 -200.000000,-40.553821 " style="stroke: #000000; fill:none;"/>
<path d="m 100.000000,29.445351 -200.000000,-45.225439 " style="stroke: #000000; fill:none;"/>
<path d="m 100.000000,34.204711 -200.000000,-49.891328 " style="stroke: #000000; fill:none;"/>
<path d="m 100.000000,39.106747 -200.000000,-54.580497 " style="stroke: #000000; fill:none;"/>
<path d="m 100.000000,44.151137 -200.000000,-59.323730 " style="stroke: #000000; fill:none;"/>
<path d="m 100.000000,49.338343 -200.000000,-64.153707 " style="stroke: #000000; fill:none;"/>
<path d="m 100.000000,54.670051 -200.000000,-69.105151 " style="stroke: #000000; fill:none;"/>
<path d="m 100.000000,60.149669 -200.000000,-74.215032 " style="stroke: #000000; fill:none;"/>
<path d="m 100.000000,65.782874 -200.000000,-79.522830 " style="stroke: #000000; fill:none;"/>
<path d="m 100.000000,71.578215 -200.000000,-85.070894 " style="stroke: #000000; fill:none;"/>
<path d="m 100.000000,77.547785 -200.000000,-90.904920 " style="stroke: #000000; fill:none;"/>
<path d="m 100.000000,83.707947 -200.000000,-97.074582 " style="stroke: #000000; fill:none;"/>
<path d="m 100.000000,90.080165 -200.000000,-103.634354 " style="stroke: #000000; fill:none;"/>
<path d="m 100.000000,96.691945 -200.000000,-110.644583 " style="stroke: #000000; fill:none;"/>
<path d="m 93.944572,100.000000 -193.944572,-114.594954 " style="stroke: #000000; fill:none;"/>
<path d="m 82.926990,100.000000 -182.926990,-115.514718 " style="stroke: #000000; fill:none;"/>
<path d="m 72.827712,100.000000 -172.827712,-116.746846 " style="stroke: #000000; fill:none;"/>
<path d="m 63.557448,100.000000 -163.557448,-118.328594 " style="stroke: #000000; fill:none;"/>
<path d="m 55.034860,100.000000 -155.034860,-120.300933 " style="stroke: #000000; fill:none;"/>
<path d="m 47.185293,100.000000 -147.185293,-122.710396 " style="stroke: #000000; fill:none;"/>
<path d="m 39.939948,100.000000 -139.939948,-125.611554 " style="stroke: #000000; fill:none;"/>
<path d="m 33.235351,100.000000 -133.235351,-129.070370 " style="stroke: #000000; fill:none;"/>
<path d="m 27.013004,100.000000 -127.013004,-133.168797 " style="stroke: #000000; fill:none;"/>
<path d="m 21.219142,100.000000 -121.219142,-138.011208 " style="stroke: #000000; fill:none;"/>
<path d="m 15.804552,100.000000 -115.804552,-143.733594 " style="stroke: #000000; fill:none;"/>
<path d="m 10.724391,100.000000 -110.724391,-150.517102 " style="stroke: #000000; fill:none;"/>
<path d="m 5.938010,100.000000 -105.938010,-158.608540 " style="stroke: #000000; fill:none;"/>
<path d="m 1.408761,100.000000 -101.408761,-168.352594 " style="stroke: #000000; fill:none;"/>
<path d="m -2.896218,100.000000 -97.103782,-180.244461 " style="stroke: #000000; fill:none;"/>
<path d="m -7.006238,100.000000 -92.993762,-195.019973 " style="stroke: #000000; fill:none;"/>
<path d="m -10.947301,100.000000 -83.297365,-200.000000 " style="stroke: #000000; fill:none;"/>
<path d="m -14.742353,100.000000 -71.494706,-200.000000 " style="stroke: #000000; fill:none;"/>
<path d="m -18.411541,100.000000 -59.922383,-200.000000 " style="stroke: #000000; fill:none;"/>
<path d="m -21.972461,100.000000 -48.542967,-200.000000 " style="stroke: #000000; fill:none;"/>
<path d="m -25.440395,100.000000 -37.319642,-200.000000 " style="stroke: #000000; fill:none;"/>
<path d="m -28.828542,100.000000 -26.216181,-200.000000 " style="stroke: #000000; fill:none;"/>
<path d="m -32.148223,100.000000 -15.196924,-200.000000 " style="stroke: #000000; fill:none;"/>
<path d="m -35.409065,100.000000 -4.226781,-200.000000 " style="stroke: #000000; fill:none;"/>
<path d="m -38.619177,100.000000 6.728738,-200.000000 " style="stroke: #000000; fill:none;"/>
<path d="m -41.785282,100.000000 17.703459,-200.000000 " style="stroke: #000000; fill:none;"/>
<path d="m -44.912843,100.000000 28.730437,-200.000000 " style="stroke: #000000; fill:none;"/>
<path d="m -48.006148,100.000000 39.841777,-200.000000 " style="stroke: #000000; fill:none;"/>
<path d="m -51.068384,100.000000 51.068384,-200.000000 " style="stroke: #000000; fill:none;"/>
<path d="m -54.101673,100.000000 62.439617,-200.000000 " style="stroke: #000000; fill:none;"/>
<path d="m -57.107083,100.000000 73.982821,-200.000000 " style="stroke: #000000; fill:none;"/>
<path d="m -60.084617,100.000000 85.722726,-200.000000 " style="stroke: #000000; fill:none;"/>
<path d="m -63.033166,100.000000 97.680683,-200.000000 " style="stroke: #000000; fill:none;"/>
<path d="m -65.950443,100.000000 109.873734,-200.000000 " style="stroke: #000000; fill:none;"/>
<path d="m -68.832891,100.000000 122.313483,-200.000000 " style="stroke: #000000; fill:none;"/>
<path d="m -71.675566,100.000000 135.004783,-200.000000 " style="stroke: #000000; fill:none;"/>
<path d="m -74.472018,100.000000 147.944245,-200.000000 " style="stroke: #000000; fill:none;"/>
<path d="m -77.214162,100.000000 161.118601,-200.000000 " style="stroke: #000000; fill:none;"/>
<path d="m -79.892168,100.000000 174.502988,-200.000000 " style="stroke: #000000; fill:none;"/>
<path d="m -82.494380,100.000000 182.494380,-194.081793 " style="stroke: #000000; fill:none;"/>
<path d="m -85.007298,100.000000 185.007298,-183.416722 " style="stroke: #000000; fill:none;"/>
<path d="m -87.415642,100.000000 187.415642,-173.968441 " style="stroke: #000000; fill:none;"/>
<path d="m -89.702538,100.000000 189.702538,-165.571757 " style="stroke: #000000; fill:none;"/>
<path d="m -91.849846,100.000000 191.849846,-158.096739 " style="stroke: #000000; fill:none;"/>
<path d="m -93.838659,100.000000 193.838659,-151.439792 " style="stroke: #000000; fill:none;"/>
<path d="m -95.649972,100.000000 195.649972,-145.517153 " style="stroke: #000000; fill:none;"/>
<path d="m -97.265529,100.000000 197.265529,-140.260056 " style="stroke: #000000; fill:none;"/>
<path d="m -98.668796,100.000000 198.668796,-135.611096 " style="stroke: #000000; fill:none;"/>
<path d="m -99.846016,100.000000 199.846016,-131.521448 " style="stroke: #000000; fill:none;"/>
<path d="m -100.000000,99.498335 200.000000,-127.447049 " style="stroke: #000000; fill:none;"/>
<path d="m -100.000000,99.078348 200.000000,-123.933604 " style="stroke: #000000; fill:none;"/>
<path d="m -100.000000,98.822035 200.000000,-121.028927 " style="stroke: #000000; fill:none;"/>
<path d="m -100.000000,98.711524 200.000000,-118.683386 " style="stroke: #000000; fill:none;"/>
<path d="m -100.000000,98.729990 200.000000,-116.850018 " style="stroke: #000000; fill:none;"/>
<path d="m -100.000000,98.861298 200.000000,-115.483535 " style="stroke: #000000; fill:none;"/>
<path d="m -100.000000,99.089700 200.000000,-114.539528 " style="stroke: #000000; fill:none;"/>
<path d="m -100.000000,99.399580 200.000000,-113.973821 " style="stroke: #000000; fill:none;"/>
<path d="m -100.000000,99.775238 200.000000,-113.741948 " style="stroke: #000000; fill:none;"/>
<path d="m -99.647263,100.000000 199.647263,-113.598033 " style="stroke: #000000; fill:none;"/>
<path d="m -98.843790,100.000000 198.843790,-113.438392 " style="stroke: #000000; fill:none;"/>
<path d="m -98.018964,100.000000 198.018964,-113.457223 " style="stroke: #000000; fill:none;"/>
<path d="m -97.206344,100.000000 197.206344,-113.623134 " style="stroke: #000000; fill:none;"/>
<path d="m -96.438351,100.000000 196.438351,-113.903869 " style="stroke: #000000; fill:none;"/>
<path d="m -95.745966,100.000000 195.745966,-114.266324 " style="stroke: #000000; fill:none;"/>
<path d="m -95.158656,100.000000 195.158656,-114.676617 " style="stroke: #000000; fill:none;"/>
<path d="m -94.704495,100.000000 194.704495,-115.100222 " style="stroke: #000000; fill:none;"/>
<path d="m -94.410454,100.000000 194.410454,-115.502176 " style="stroke: #000000; fill:none;"/>
<path d="m -94.302855,100.000000 194.302855,-115.847364 " style="stroke: #000000; fill:none;"/>
<path d="m -94.407954,100.000000 194.407954,-116.100877 " style="stroke: #000000; fill:none;"/>
<path d="m -94.752662,100.000000 194.752662,-116.228448 " style="stroke: #000000; fill:none;"/>
<path d="m -95.365422,100.000000 195.365422,-116.196951 " style="stroke: #000000; fill:none;"/>
<path d="m -96.277254,100.000000 196.277254,-115.974946 " style="stroke: #000000; fill:none;"/>
<path d="m -97.523059,100.000000 197.523059,-115.533232 " style="stroke: #000000; fill:none;"/>
<path d="m -99.143233,100.000000 199.143233,-114.845402 " style="stroke: #000000; fill:none;"/>
<path d="m -100.000000,99.328755 200.000000,-113.217079 " style="stroke: #000000; fill:none;"/>
<path d="m -100.000000,97.949070 200.000000,-110.591608 " style="stroke: #000000; fill:none;"/>
<path d="m -100.000000,96.354599 200.000000,-107.447121 " style="stroke: #000000; fill:none;"/>
<path d="m -100.000000,94.548136 200.000000,-103.774932 " style="stroke: #000000; fill:none;"/>
<path d="m -100.000000,92.535568 200.000000,-99.573403 " style="stroke: #000000; fill:none;"/>
<path d="m -100.000000,90.325602 200.000000,-94.847411 " style="stroke: #000000; fill:none;"/>
<path d="m -100.000000,87.929379 200.000000,-89.607511 " style="stroke: #000000; fill:none;"/>
<path d="m -100.000000,85.360011 200.000000,-83.868865 " style="stroke: #000000; fill:none;"/>
<path d="m -100.000000,82.632055 200.000000,-77.649973 " style="stroke: #000000; fill:none;"/>
<path d="m -100.000000,79.760969 200.000000,-70.971297 " style="stroke: #000000; fill:none;"/>
<path d="m -100.000000,76.762569 200.000000,-63.853820 " style="stroke: #000000; fill:none;"/>
<path d="m -100.000000,73.652524 200.000000,-56.317630 " style="stroke: #000000; fill:none;"/>
<path d="m -100.000000,70.445901 200.000000,-48.380547 " style="stroke: #000000; fill:none;"/>
<path d="m -100.000000,67.156779 200.000000,-40.056847 " style="stroke: #000000; fill:none;"/>
<path d="m -100.000000,63.797934 200.000000,-31.356078 " style="stroke: #000000; fill:none;"/>
<path d="m -100.000000,60.380594 200.000000,-22.281978 " style="stroke: #000000; fill:none;"/>
<path d="m -100.000000,56.914259 200.000000,-12.831442 " style="stroke: #000000; fill:none;"/>
<path d="m -100.000000,53.406573 200.000000,-2.993527 " style="stroke: #000000; fill:none;"/>
<path d="m -100.000000,49.863229 200.000000,7.251590 " style="stroke: #000000; fill:none;"/>
<path d="m -100.000000,46.287904 200.000000,17.933758 " style="stroke: #000000; fill:none;"/>
<path d="m -100.000000,42.682190 200.000000,29.094204 " style="stroke: #000000; fill:none;"/>
<path d="m -100.000000,39.045502 200.000000,40.787196 " style="stroke: #000000; fill:none;"/>
<path d="m -100.000000,35.374958 200.000000,53.082165 " style="stroke: #000000; fill:none;"/>
<path d="m -100.000000,31.665184 200.000000,66.066477 " style="stroke: #000000; fill:none;"/>
<path d="m -100.000000,27.908022 180.570587,72.091978 " style="stroke: #000000; fill:none;"/>
<path d="m -100.000000,24.092108 160.540504,75.907892 " style="stroke: #000000; fill:none;"/>
<path d="m -100.000000,20.202249 144.582140,79.797751 " style="stroke: #000000; fill:none;"/>
<path d="m -100.000000,16.218533 131.406063,83.781467 " style="stroke: #000000; fill:none;"/>
<path d="m -100.000000,12.115056 120.205215,87.884944 " style="stroke: #000000; fill:none;"/>
<path d="m -100.000000,7.858086 110.448990,92.141914 " style="stroke: #000000; fill:none;"/>
<path d="m -100.000000,3.403394 101.774606,96.596606 " style="stroke: #000000; fill:none;"/>
<path d="m -100.000000,-1.307683 93.926095,101.307683 " style="stroke: #000000; fill:none;"/>
<path d="m -100.000000,-6.354177 86.718236,106.354177 " style="stroke: #000000; fill:none;"/>
<path d="m -100.000000,-11.844674 80.014314,111.844674 " style="stroke: #000000; fill:none;"/>
<path d="m -100.000000,-17.931962 73.711929,117.931962 " style="stroke: #000000; fill:none;"/>
<path d="m -100.000000,-24.837357 67.733651,124.837357 " style="stroke: #000000; fill:none;"/>
<path d="m -100.000000,-32.892974 62.020729,132.892974 " style="stroke: #000000; fill:none;"/>
<path d="m -100.000000,-42.619550 56.528753,142.619550 " style="stroke: #000000; fill:none;"/>
<path d="m -100.000000,-54.880302 51.224599,154.880302 " style="stroke: #000000; fill:none;"/>
<path d="m -100.000000,-71.214332 46.084253,171.214332 " style="stroke: #000000; fill:none;"/>
<path d="m -100.000000,-94.652977 41.091207,194.652977 " style="stroke: #000000; fill:none;"/>
<path d="m -94.989234,-100.000000 31.224496,200.000000 " style="stroke: #000000; fill:none;"/>
<path d="m -89.265080,-100.000000 20.776663,200.000000 " style="stroke: #000000; fill:none;"/>
<path d="m -83.901141,-100.000000 10.821079,200.000000 " style="stroke: #000000; fill:none;"/>
<path d="m -78.849711,-100.000000 1.313737,200.000000 " style="stroke: #000000; fill:none;"/>
<path d="m -74.069203,-100.000000 -7.779938,200.000000 " style="stroke: #000000; fill:none;"/>
<path d="m -69.523148,-100.000000 -16.486704,200.000000 " style="stroke: #000000; fill:none;"/>
<path d="m -65.179443,-100.000000 -24.826874,200.000000 " style="stroke: #000000; fill:none;"/>
<path d="m -61.009803,-100.000000 -32.815531,200.000000 " style="stroke: #000000; fill:none;"/>
<path d="m -56.989365,-100.000000 -40.463621,200.000000 " style="stroke: #000000; fill:none;"/>
<path d="m -53.096412,-100.000000 -46.903588,196.335706 " style="stroke: #000000; fill:none;"/>
<path d="m -49.312192,-100.000000 -50.687808,185.102683 " style="stroke: #000000; fill:none;"/>
<path d="m -45.620794,-100.000000 -54.379206,177.036392 " style="stroke: #000000; fill:none;"/>
<path d="m -42.009065,-100.000000 -57.990935,171.116077 " style="stroke: #000000; fill:none;"/>
<path d="m -38.466538,-100.000000 -61.533462,166.729964 " style="stroke: #000000; fill:none;"/>
<path d="m -34.985364,-100.000000 -65.014636,163.485456 " style="stroke: #000000; fill:none;"/>
<path d="m -31.560215,-100.000000 -68.439785,161.115292 " style="stroke: #000000; fill:none;"/>
<path d="m -28.188163,-100.000000 -71.811837,159.427465 " style="stroke: #000000; fill:none;"/>
<path d="m -24.868516,-100.000000 -75.131484,158.276827 " style="stroke: #000000; fill:none;"/>
<path d="m -21.602612,-100.000000 -78.397388,157.548204 " style="stroke: #000000; fill:none;"/>
<path d="m -18.393571,-100.000000 -81.606429,157.145989 " style="stroke: #000000; fill:none;"/>
<path d="m -15.246019,-100.000000 -84.753981,156.987570 " style="stroke: #000000; fill:none;"/>
<path d="m -12.165776,-100.000000 -87.834224,156.999126 " style="stroke: #000000; fill:none;"/>
<path d="m -9.159541,-100.000000 -90.840459,157.112976 " style="stroke: #000000; fill:none;"/>
<path d="m -6.234569,-100.000000 -93.765431,157.265953 " style="stroke: #000000; fill:none;"/>
<path d="m -3.398360,-100.000000 -96.601640,157.398522 " style="stroke: #000000; fill:none;"/>
<path d="m -0.658370,-100.000000 -99.341630,157.454408 " style="stroke: #000000; fill:none;"/>
<path d="m 1.978246,-100.000000 -101.978246,157.380625 " style="stroke: #000000; fill:none;"/>
<path d="m 4.504847,-100.000000 -104.504847,157.127766 " style="stroke: #000000; fill:none;"/>
<path d="m 6.915491,-100.000000 -106.915491,156.650494 " style="stroke: #000000; fill:none;"/>
<path d="m 9.205061,-100.000000 -109.205061,155.908147 " style="stroke: #000000; fill:none;"/>
<path d="m 11.369359,-100.000000 -111.369359,154.865381 " style="stroke: #000000; fill:none;"/>
<path d="m 13.405156,-100.000000 -113.405156,153.492804 " style="stroke: #000000; fill:none;"/>
<path d="m 15.310207,-100.000000 -115.310207,151.767513 " style="stroke: #000000; fill:none;"/>
<path d="m 17.083246,-100.000000 -117.083246,149.673510 " style="stroke: #000000; fill:none;"/>
<path d="m 18.723950,-100.000000 -118.723950,147.201930 " style="stroke: #000000; fill:none;"/>
<path d="m 20.232895,-100.000000 -120.232895,144.351067 " style="stroke: #000000; fill:none;"/>
<path d="m 21.611499,-100.000000 -121.611499,141.126177 " style="stroke: #000000; fill:none;"/>
<path d="m 22.861969,-100.000000 -122.861969,137.539060 " style="stroke: #000000; fill:none;"/>
<path d="m 23.987242,-100.000000 -123.987242,133.607442 " style="stroke: #000000; fill:none;"/>
<path d="m 24.990945,-100.000000 -124.990945,129.354193 " style="stroke: #000000; fill:none;"/>
<path d="m 25.877355,-100.000000 -125.877355,124.806415 " style="stroke: #000000; fill:none;"/>
<path d="m 26.651379,-100.000000 -126.651379,119.994456 " style="stroke: #000000; fill:none;"/>
<path d="m 27.318555,-100.000000 -127.318555,114.950901 " style="stroke: #000000; fill:none;"/>
<path d="m 27.885061,-100.000000 -127.885061,109.709579 " style="stroke: #000000; fill:none;"/>
<path d="m 28.357762,-100.000000 -128.357762,104.304642 " style="stroke: #000000; fill:none;"/>
<path d="m 28.744275,-100.000000 -128.744275,98.769734 " style="stroke: #000000; fill:none;"/>
<path d="m 29.053071,-100.000000 -129.053071,93.137278 " style="stroke: #000000; fill:none;"/>
<path d="m 29.293631,-100.000000 -129.293631,87.437890 " style="stroke: #000000; fill:none;"/>
<path d="m 29.476659,-100.000000 -129.476659,81.699936 " style="stroke: #000000; fill:none;"/>
<path d="m 29.614393,-100.000000 -129.614393,75.949196 " style="stroke: #000000; fill:none;"/>
<path d="m 29.721068,-100.000000 -129.721068,70.208667 " style="stroke: #000000; fill:none;"/>
<path d="m 29.813600,-100.000000 -129.813600,64.498450 " style="stroke: #000000; fill:none;"/>
<path d="m 29.912659,-100.000000 -129.912659,58.835729 " style="stroke: #000000; fill:none;"/>
<path d="m 30.044382,-100.000000 -130.044382,53.234826 " style="stroke: #000000; fill:none;"/>
<path d="m 30.243243,-100.000000 -130.243243,47.707299 " style="stroke: #000000; fill:none;"/>
<path d="m 30.557091,-100.000000 -130.557091,42.262086 " style="stroke: #000000; fill:none;"/>
<path d="m 31.056530,-100.000000 -131.056530,36.905679 " style="stroke: #000000; fill:none;"/>
<path d="m 31.853720,-100.000000 -131.853720,31.642315 " style="stroke: #000000; fill:none;"/>
<path d="m 33.143787,-100.000000 -133.143787,26.474174 " style="stroke: #000000; fill:none;"/>
<path d="m 35.308428,-100.000000 -135.308428,21.401586 " style="stroke: #000000; fill:none;"/>
<path d="m 39.226825,-100.000000 -139.226825,16.423247 " style="stroke: #000000; fill:none;"/>
<path d="m 47.519500,-100.000000 -147.519500,11.536417 " style="stroke: #000000; fill:none;"/>
<path d="m 73.255654,-100.000000 -173.255654,6.737131 " style="stroke: #000000; fill:none;"/>
<path d="m 100.000000,-97.979601 -200.000000,0.000000 " style="stroke: #000000; fill:none;"/>
<path d="m 100.000000,-94.927534 -131.888287,-5.072466 " style="stroke: #000000; fill:none;"/>
<path d="m 100.000000,-91.889552 -106.020541,-8.110448 " style="stroke: #000000; fill:none;"/>
<path d="m 100.000000,-88.872649 -97.509866,-11.127351 " style="stroke: #000000; fill:none;"/>
<path d="m 100.000000,-85.884947 -93.289037,-14.115053 " style="stroke: #000000; fill:none;"/>
<path d="m 100.000000,-82.935579 -90.740286,-17.064421 " style="stroke: #000000; fill:none;"/>
<path d="m 11.012044,-100.000000 88.987956,19.965445 " style="stroke: #000000; fill:none;"/>
<path d="m 12.345360,-100.000000 87.654640,22.807422 " style="stroke: #000000; fill:none;"/>
<path d="m 13.449748,-100.000000 86.550252,25.579156 " style="stroke: #000000; fill:none;"/>
<path d="m 14.431584,-100.000000 85.568416,28.269198 " style="stroke: #000000; fill:none;"/>
<path d="m 15.354956,-100.000000 84.645044,30.866120 " style="stroke: #000000; fill:none;"/>
<path d="m 16.260465,-100.000000 83.739535,33.358808 " style="stroke: #000000; fill:none;"/>
<path d="m 17.174616,-100.000000 82.825384,35.736781 " style="stroke: #000000; fill:none;"/>
<path d="m 18.114857,-100.000000 81.885143,37.990528 " style="stroke: #000000; fill:none;"/>
<path d="m 19.092458,-100.000000 80.907542,40.111841 " style="stroke: #000000; fill:none;"/>
<path d="m 20.114233,-100.000000 79.885767,42.094145 " style="stroke: #000000; fill:none;"/>
<path d="m 21.183627,-100.000000 78.816373,43.932808 " style="stroke: #000000; fill:none;"/>
<path d="m 22.301430,-100.000000 77.698570,45.625414 " style="stroke: #000000; fill:none;"/>
<path d="m 23.466284,-100.000000 76.533716,47.171988 " style="stroke: #000000; fill:none;"/>
<path d="m 24.675060,-100.000000 75.324940,48.575156 " style="stroke: #000000; fill:none;"/>
<path d="m 25.923163,-100.000000 74.076837,49.840240 " style="stroke: #000000; fill:none;"/>
<path d="m 27.204815,-100.000000 72.795185,50.975265 " style="stroke: #000000; fill:none;"/>
<path d="m 28.513321,-100.000000 71.486679,51.990883 " style="stroke: #000000; fill:none;"/>
<path d="m 29.841344,-100.000000 70.158656,52.900213 " style="stroke: #000000; fill:none;"/>
<path d="m 31.181199,-100.000000 68.818801,53.718600 " style="stroke: #000000; fill:none;"/>
<path d="m 32.525163,-100.000000 67.474837,54.463305 " style="stroke: #000000; fill:none;"/>
<path d="m 33.865806,-100.000000 66.134194,55.153129 " style="stroke: #000000; fill:none;"/>
<path d="m 35.196346,-100.000000 64.803654,55.808000 " style="stroke: #000000; fill:none;"/>
<path d="m 36.511001,-100.000000 63.488999,56.448527 " style="stroke: #000000; fill:none;"/>
<path d="m 37.805349,-100.000000 62.194651,57.095553 " style="stroke: #000000; fill:none;"/>
<path d="m 39.076660,-100.000000 60.923340,57.769709 " style="stroke: #000000; fill:none;"/>
<path d="m 40.324207,-100.000000 59.675793,58.491006 " style="stroke: #000000; fill:none;"/>
<path d="m 41.549520,-100.000000 58.450480,59.278460 " style="stroke: #000000; fill:none;"/>
<path d="m 42.756572,-100.000000 57.243428,60.149784 " style="stroke: #000000; fill:none;"/>
<path d="m 43.951899,-100.000000 56.048101,61.121145 " style="stroke: #000000; fill:none;"/>
<path d="m 100.000000,-37.792997 -54.855381,-62.207003 " style="stroke: #000000; fill:none;"/>
<path d="m 100.000000,-36.579964 -53.653634,-63.420036 " style="stroke: #000000; fill:none;"/>
<path d="m 100.000000,-35.228843 -52.428863,-64.771157 " style="stroke: #000000; fill:none;"/>
<path d="m 100.000000,-33.730357 -51.164941,-66.269643 " style="stroke: #000000; fill:none;"/>
<path d="m 100.000000,-32.076636 -49.843911,-67.923364 " style="stroke: #000000; fill:none;"/>
<path d="m 100.000000,-30.260848 -48.446327,-69.739152 " style="stroke: #000000; fill:none;"/>
<path d="m 100.000000,-28.276684 -46.951609,-71.723316 " style="stroke: #000000; fill:none;"/>
<path d="m 100.000000,-26.117622 -45.338398,-73.882378 " style="stroke: #000000; fill:none;"/>
<path d="m 100.000000,-23.775917 -43.584874,-76.224083 " style="stroke: #000000; fill:none;"/>
<path d="m 100.000000,-21.241116 -41.669018,-78.758884 " style="stroke: #000000; fill:none;"/>
<path d="m 100.000000,-18.497847 -39.568799,-81.502153 " style="stroke: #000000; fill:none;"/>
<path d="m 100.000000,-15.522287 -37.262274,-84.477713 " style="stroke: #000000; fill:none;"/>
<path d="m 100.000000,-12.276194 -34.727583,-87.723806 " style="stroke: #000000; fill:none;"/>
<path d="m 100.000000,-8.696065 -31.942843,-91.303935 " style="stroke: #000000; fill:none;"/>
<path d="m 100.000000,-4.671772 -28.885937,-95.328228 " style="stroke: #000000; fill:none;"/>
<path d="m 100.000000,-0.000000 -25.534192,-100.000000 " style="stroke: #000000; fill:none;"/>
</svg>
